<svg width="45" height="65" viewBox="0 0 45 65" fill="none" xmlns="http://www.w3.org/2000/svg">
<g id="Frame" clip-path="url(#clip0_1_1496)">
<g id="Group">
<g id="Group_2">
<path id="Vector" d="M26.218 9.84613H18.7053V12.3846H26.218V9.84613Z" fill="#946D20"/>
<path id="Vector_2" d="M12.3424 65C10.8859 65 9.50595 64.5385 8.27938 63.6923C-7.81943 51.9231 3.06643 38.5385 11.6525 32.1539C14.7956 29.8462 16.9421 26.4616 17.862 22.7692C18.1686 21.5385 18.322 20.2308 18.322 19V11.9231H26.7547V19C26.7547 20.3077 26.908 21.5385 27.2146 22.7692C28.1346 26.5385 30.2811 29.8462 33.4242 32.1539C42.0102 38.5385 52.8961 51.9231 36.7973 63.6923C35.6474 64.5385 34.1908 65 32.7342 65H12.3424Z" fill="#7A0C06"/>
<path id="Vector_3" d="M32.8876 32.7692C32.0443 32.1538 31.2777 31.3846 30.5111 30.6154H14.4123C13.7223 31.3846 12.8791 32.0769 12.0358 32.7692C9.42931 34.7692 0.689953 41.8461 0.766614 50.3077C0.766614 54.923 3.44975 59.2307 8.73936 63.0769C9.81261 63.8461 11.0392 64.2307 12.3424 64.2307C19.4719 62.3077 26.2947 62.3846 32.7342 64.2307C34.0375 64.2307 35.2641 63.8461 36.3373 63.0769C41.6269 59.2307 44.3101 54.923 44.3101 50.3077C44.3101 41.8461 35.5707 34.7692 32.8876 32.7692Z" fill="#610A05"/>
<path id="Vector_4" d="M19.0119 10.8462C17.632 10.8462 16.4821 9.84616 16.4054 8.46154C16.2521 6.76923 15.9455 5 15.6388 3.30769C15.4088 1.76923 16.4821 0.307692 18.0153 0.230769C19.5485 0.0769231 21.0818 0 22.5383 0C23.9949 0 25.6048 0.0769231 27.0613 0.230769C28.5945 0.384615 29.6678 1.84615 29.4378 3.30769C29.1312 5 28.8245 6.69231 28.6712 8.46154C28.5179 9.84616 27.368 10.8462 26.0647 10.8462H19.0119Z" fill="#CF982D"/>
<path id="Vector_5" d="M22.5383 24.1539C21.0818 24.077 19.4719 23.6154 17.862 22.7693C18.0153 22.1539 18.092 21.5385 18.1686 21C18.2453 20.5385 18.2453 20 18.2453 19.5385C18.2453 19.4616 18.2453 19.3077 18.2453 19.2308C18.2453 19.1539 18.2453 19.077 18.2453 19V11.8462H26.678V19C26.678 19.077 26.678 19.1539 26.678 19.2308C26.678 19.3077 26.678 19.4616 26.678 19.5385C26.678 20 26.7547 20.5385 26.7547 21C26.8313 21.6154 26.908 22.2308 27.0613 22.7693C25.5281 23.5385 23.9949 24 22.5383 24.1539Z" fill="#CF982D"/>
<path id="Vector_6" opacity="0.6" d="M22.5383 22.1539C21.1584 22.0769 19.7019 21.6923 18.1686 20.9231C18.2453 20.4616 18.2453 19.9231 18.2453 19.4616C18.2453 19.3846 18.2453 19.2308 18.2453 19.1539C19.7019 19.8462 21.1584 20.2308 22.4617 20.3077C23.8416 20.2308 25.2214 19.8462 26.678 19.1539C26.678 19.2308 26.678 19.3846 26.678 19.4616C26.678 19.9231 26.7547 20.4616 26.7547 20.9231C25.3748 21.6923 23.9182 22.0769 22.5383 22.1539Z" fill="white"/>
<path id="Vector_7" d="M22.5383 20.6154C21.1584 20.5385 19.7785 20.1539 18.322 19.4616C18.322 19.3846 18.322 17.6923 18.322 17.6923C19.7785 18.3846 21.1584 18.7692 22.5383 18.8462C23.9182 18.7692 25.2981 18.3846 26.7547 17.6923C26.7547 17.6923 26.7547 19.3846 26.7547 19.4616C25.2981 20.1539 23.8416 20.5385 22.5383 20.6154Z" fill="#400B08"/>
<path id="Vector_8" d="M22.5383 60.3846C16.0221 60.3077 10.5792 57.3846 8.50935 53.2308C7.89606 52.0769 7.58942 50.8462 7.58942 49.5385C7.58942 48.3077 7.89606 47.1539 8.43269 46C10.4259 41.7692 16.0221 38.7692 22.615 38.6923C29.2078 38.7692 34.7274 41.8462 36.7973 46C37.3339 47.0769 37.6405 48.3077 37.6405 49.5385C37.6405 50.8462 37.3339 52.0769 36.7206 53.2308C34.4974 57.3077 28.9778 60.2308 22.5383 60.3846Z" fill="#CF982D"/>
<path id="Vector_9" opacity="0.8" d="M22.5383 59.5385C30.1593 59.5385 36.3373 55.0614 36.3373 49.5385C36.3373 44.0157 30.1593 39.5385 22.5383 39.5385C14.9173 39.5385 8.73932 44.0157 8.73932 49.5385C8.73932 55.0614 14.9173 59.5385 22.5383 59.5385Z" fill="white"/>
<path id="Vector_10" d="M22.5383 58.2307C29.3972 58.2307 34.9574 54.3391 34.9574 49.5384C34.9574 44.7378 29.3972 40.8461 22.5383 40.8461C15.6795 40.8461 10.1193 44.7378 10.1193 49.5384C10.1193 54.3391 15.6795 58.2307 22.5383 58.2307Z" fill="#CF982D"/>
<path id="Vector_11" opacity="0.4" d="M22.5383 55.8462C27.3649 55.8462 31.2777 53.0221 31.2777 49.5385C31.2777 46.0548 27.3649 43.2308 22.5383 43.2308C17.7117 43.2308 13.799 46.0548 13.799 49.5385C13.799 53.0221 17.7117 55.8462 22.5383 55.8462Z" fill="white"/>
<path id="Vector_12" d="M8.43269 53.2308C7.8194 52.0769 7.51276 50.8462 7.51276 49.5385C7.51276 48.3077 7.8194 47.1538 8.35603 46H36.6439C37.1806 47.0769 37.4872 48.3077 37.4872 49.5385C37.4872 50.8462 37.1806 52.0769 36.5673 53.2308H8.43269Z" fill="#400B08"/>
<path id="Vector_13" opacity="0.7" d="M34.8808 48.1538H10.0426V50.7692H34.8808V48.1538Z" fill="white"/>
<path id="Vector_14" opacity="0.3" d="M20.6218 14.1539C20.7751 14.1539 20.8518 14.9231 21.0051 16.3846C21.0818 17.0769 21.0818 18 21.1584 19C21.1584 20.0769 21.1584 21.2308 20.9285 22.5385C20.8518 22.8462 20.8518 23.2308 20.7751 23.5385C20.6985 23.8462 20.6218 24.2308 20.5452 24.5385C20.4685 24.9231 20.3918 25.2308 20.2385 25.6154C20.0852 26 20.0085 26.3077 19.8552 26.6923C19.2419 28.1539 18.3986 29.6154 17.4021 31C16.3288 32.3846 14.9489 33.6923 13.4923 34.8462C12.0358 35.9231 10.6559 37.1539 9.35265 38.5385C6.74618 41.2308 4.59967 44.3077 3.7564 47.3846C3.29643 48.9231 3.21977 50.4616 3.44975 51.8462C3.60307 52.5385 3.67974 53.2308 3.98638 53.8462C4.1397 54.4616 4.44635 55 4.75299 55.6154C5.9029 57.7693 7.43612 59.2308 8.35606 60.2308C9.42931 61.1539 9.96594 61.7693 9.88928 61.8462C9.81262 61.9231 9.12267 61.5385 7.89609 60.7693C6.51619 59.7693 4.82965 58.4616 3.37309 56.1539C2.98979 55.6154 2.68314 55 2.3765 54.3077C2.06985 53.6154 1.91653 52.8462 1.68655 52.0769C1.37991 50.4616 1.45657 48.6923 1.91653 47C2.7598 43.4616 5.05963 40.2308 7.81943 37.3077C9.19933 35.8462 10.6559 34.6154 12.1891 33.4616C13.6457 32.3846 14.8722 31.2308 15.8688 30C16.8654 28.7693 17.632 27.3846 18.322 26.0769C18.4753 25.7693 18.6286 25.3846 18.7053 25.0769C18.8586 24.7693 18.9353 24.4616 19.0886 24.0769C19.1653 23.7693 19.3186 23.4616 19.3952 23.1539C19.4719 22.8462 19.5486 22.5385 19.6252 22.2308C19.9319 21 20.0085 19.9231 20.0852 18.9231C20.1619 17.9231 20.1618 17 20.2385 16.3077C20.3152 14.9231 20.4685 14.1539 20.6218 14.1539Z" fill="white"/>
<path id="Vector_15" opacity="0.3" d="M20.6218 1.30769C20.6218 1.53846 20.0852 1.61538 19.3952 2C19.0886 2.23077 18.7819 2.46153 18.7053 2.84615C18.6286 3 18.6286 3.23077 18.7053 3.46153C18.7819 3.76923 18.7819 4.15384 18.8586 4.46153C18.9353 5.15384 19.0119 5.76923 19.0886 6.38461C19.1652 7 19.1652 7.53846 19.2419 7.92307C19.3186 8.76923 19.3186 9.38461 19.1652 9.46153C19.0119 9.53846 18.7053 9 18.322 8.15384C18.1686 7.6923 18.0153 7.15384 17.9387 6.53846C17.632 6 17.4787 5.38461 17.402 4.6923C17.3254 4.30769 17.3254 4 17.3254 3.6923C17.3254 3.30769 17.3254 2.84615 17.4787 2.46153C17.632 2 17.9387 1.6923 18.2453 1.53846C18.552 1.30769 18.7819 1.23077 19.0886 1.15384C20.0852 0.923073 20.6218 1.15384 20.6218 1.30769Z" fill="white"/>
</g>
<path id="Vector_16" opacity="0.2" d="M33.3475 32.1538C30.2044 29.8461 28.0579 26.4615 27.138 22.7692C27.0613 22.4615 26.9847 22.1538 26.9847 21.8461C26.9847 21.7692 26.9847 21.6923 26.9847 21.6154C26.9847 21.3846 26.908 21.1538 26.908 20.9231V20.8461C26.908 20.6154 26.8313 20.3077 26.8313 20.0769C26.8313 19.9231 26.8313 19.7692 26.8313 19.6154C26.8313 19.5384 26.8313 19.4615 26.8313 19.3846C26.8313 19 26.8313 17.7692 26.8313 17.7692V11.9231H26.3714V10.9231C27.598 10.7692 28.5945 9.84613 28.7479 8.53844C28.9012 6.84613 29.2078 5.0769 29.5145 3.3846C29.7445 1.84614 28.6712 0.384597 27.138 0.307673C25.6048 0.153827 24.0715 0.0769043 22.615 0.0769043V65.0769H32.8109C34.2675 65.0769 35.6474 64.6154 36.8739 63.7692C52.8194 51.9231 41.9336 38.5384 33.3475 32.1538Z" fill="#1D1D1B"/>
</g>
</g>
<defs>
<clipPath id="clip0_1_1496">
<rect width="45" height="65" fill="white"/>
</clipPath>
</defs>
</svg>
