<svg width="24" height="65" viewBox="0 0 24 65" fill="none" xmlns="http://www.w3.org/2000/svg">
<g id="Frame" clip-path="url(#clip0_1_1534)">
<g id="Group">
<g id="Group_2">
<path id="Vector" d="M23.7108 59.2386L24 61.0852C24 63.375 22.6265 65 20.9639 65H3.03614C1.37349 65 0 63.375 0 61.0852L0.289157 59.2386V34.8636L0 34.3466C0 32.2784 0.939759 30.2841 2.53012 29.0284L6.28916 26C6.86747 25.5568 7.15663 24.8182 7.01205 24.0795C6.86747 23.0455 6.79518 21.8636 6.79518 20.7557C6.79518 20.0909 6.79518 19.4261 6.79518 18.7614C6.86747 17.358 6.93976 15.9545 7.08434 14.5511C7.08434 14.4773 7.08434 14.4034 7.08434 14.4034C7.15663 13.9602 7.22892 13.517 7.30121 13.0739C7.30121 13 7.30121 13 7.30121 13C7.44578 11.9659 7.66265 10.9318 7.87952 9.89773C7.95181 9.60227 7.80723 9.30682 7.59036 9.15909C7.37349 9.01136 7.22892 8.71591 7.22892 8.42045L7.59036 4.0625H16.3373L16.6988 8.42045C16.6988 8.71591 16.6265 9.01136 16.3373 9.15909C16.1205 9.30682 15.9759 9.60227 16.0482 9.89773C16.1205 10.1932 16.1928 10.5625 16.2651 10.858C16.3373 11.3011 16.4096 11.7443 16.4819 12.1875C16.5542 12.4091 16.5542 12.7045 16.6265 12.9261V13C16.6265 13.2216 16.6988 13.4432 16.6988 13.6648C16.6988 13.8864 16.7711 14.108 16.7711 14.3295C16.7711 14.4034 16.7711 14.4773 16.7711 14.4773C16.8434 14.9943 16.9157 15.5114 16.9157 16.0284C16.9157 16.25 16.988 16.5455 16.988 16.767C16.988 17.0625 16.988 17.2841 17.0602 17.5795C17.0602 17.9489 17.1325 18.3182 17.1325 18.6875C17.1325 19.3523 17.1325 20.017 17.1325 20.6818C17.1325 21.8636 16.988 22.9716 16.9157 24.0057C16.8434 24.7443 17.1325 25.483 17.6386 25.9261L21.3976 28.9545C22.988 30.2841 23.9277 32.2045 23.9277 34.2727L23.6386 34.7898V59.2386H23.7108Z" fill="#F9B233"/>
<path id="Vector_2" d="M7.8072 0C7.51804 0 7.22888 0.221591 7.22888 0.517045V3.32386C7.22888 3.61932 7.44575 3.84091 7.73491 3.84091H16.1927C16.4819 3.84091 16.6988 3.61932 16.6988 3.32386V0.517045C16.6988 0.221591 16.4819 0 16.1927 0H7.8072Z" fill="#432918"/>
<path id="Vector_3" d="M17.2771 18.6875H6.79517C6.86746 17.2841 6.93974 15.8807 7.08432 14.4773C7.08432 14.4034 7.08432 14.3296 7.08432 14.3296C7.15661 13.8864 7.2289 13.4432 7.30119 13C7.30119 12.9261 7.30119 12.9261 7.30119 12.9261C7.44577 11.8921 7.66264 10.858 7.8795 9.82387C7.95179 9.52842 7.80721 9.23297 7.59035 9.08524C7.37348 8.93751 7.2289 8.64206 7.2289 8.3466L7.59035 3.98865H16.3373L16.6988 8.3466C16.6988 8.64206 16.6265 8.93751 16.3373 9.08524C16.1205 9.23297 15.9759 9.52842 16.0482 9.82387C16.1205 10.1193 16.1928 10.4886 16.265 10.7841C16.3373 11.2273 16.4096 11.6705 16.4819 12.1136C16.5542 12.3352 16.5542 12.6307 16.6265 12.8523V12.9261C16.6265 13.1477 16.6988 13.3693 16.6988 13.5909C16.6988 13.8125 16.7711 14.0341 16.7711 14.2557C16.7711 14.3296 16.7711 14.4034 16.7711 14.4034C16.8434 14.9205 16.9156 15.4375 16.9156 15.9546C16.9156 16.1761 16.9879 16.4716 16.9879 16.6932C16.9879 16.9886 16.9879 17.2102 17.0602 17.5057C17.2771 17.9489 17.2771 18.3182 17.2771 18.6875Z" fill="#432918"/>
<path id="Vector_4" d="M12 36.0455L1.22895 35.8239L0.650635 34.2727V34.1989C0.722924 32.3523 1.5181 30.6534 2.8916 29.5455L5.85545 27.1818H18.2169L21.1808 29.5455C22.5542 30.6534 23.4217 32.3523 23.4217 34.1989V34.2727L22.8434 35.8239L12 36.0455Z" fill="#CA650B"/>
<path id="Vector_5" d="M12 62.8579C8.96389 62.8579 6.00003 63.3011 3.03618 64.2613C1.66268 64.2613 0.650635 62.9318 0.650635 61.0852L1.22895 57.8352L12.0723 58.7954L22.9157 57.8352L23.494 61.0852C23.494 62.8579 22.482 64.2613 21.1085 64.2613C18 63.375 15.0362 62.8579 12 62.8579Z" fill="#CA650B"/>
<path id="Vector_6" d="M23.7109 34.8636H0.289185V59.2386H23.7109V34.8636Z" fill="#432918"/>
<g id="Group_3">
<path id="Vector_7" d="M10.1928 37.5227C10.1928 37.5227 10.2651 37.5966 10.1928 37.7443C10.1205 37.892 9.97596 38.0397 9.75909 38.1136C9.61451 38.1136 9.46994 38.1136 9.32536 38.0397C9.18078 37.9659 9.0362 37.8182 8.96391 37.5966C8.81933 37.2272 8.96391 36.6363 9.46994 36.3409C9.97596 36.1193 10.5543 36.1932 10.988 36.6363C11.4217 37.0057 11.6386 37.7443 11.3495 38.4091C11.1326 39.0738 10.3374 39.517 9.6868 39.4432C9.32536 39.4432 9.0362 39.2954 8.74705 39.1477C8.45789 39 8.16873 38.8522 7.87957 38.6307C6.86753 37.9659 5.92777 37.2272 4.98801 36.8579C4.04825 36.4886 3.18078 36.7841 2.81933 37.375C2.45789 37.9659 2.74704 38.5568 3.0362 38.7784C3.32536 39.2216 3.61451 39.1477 3.61451 39.2216C3.61451 39.2216 3.32536 39.4432 2.89162 39.2216C2.67476 39.0738 2.3856 38.8522 2.24102 38.5568C2.09644 38.1875 2.09644 37.6704 2.31331 37.3011C2.74705 36.4147 4.04825 35.9716 5.13259 36.3409C6.21692 36.7102 7.22897 37.4488 8.24102 38.1136C8.45789 38.2613 8.74704 38.4829 8.96391 38.5568C9.18078 38.7045 9.46994 38.7784 9.6868 38.7784C10.1205 38.8522 10.5543 38.5568 10.6989 38.1875C10.9157 37.8182 10.7711 37.375 10.5543 37.1534C10.3374 36.8579 9.90367 36.7841 9.6868 36.8579C9.39765 36.9318 9.32536 37.2272 9.32536 37.4488C9.39765 37.6704 9.54223 37.7443 9.75909 37.7443C10.1205 37.7443 10.1205 37.4488 10.1928 37.5227Z" fill="#9C723E"/>
</g>
<g id="Group_4">
<path id="Vector_8" d="M13.8072 37.5227C13.8072 37.5227 13.7349 37.5966 13.8072 37.7443C13.8795 37.892 14.0241 38.0398 14.2409 38.1136C14.3855 38.1136 14.5301 38.1136 14.6747 38.0398C14.8193 37.9659 14.9638 37.8182 15.0361 37.5966C15.1807 37.2273 15.0361 36.6364 14.5301 36.3409C14.0241 36.1193 13.4458 36.1932 13.012 36.6364C12.5783 37.0057 12.3614 37.7443 12.6506 38.4091C12.8675 39.0739 13.6626 39.517 14.3132 39.4432C14.6747 39.4432 14.9638 39.2955 15.253 39.1477C15.5421 39 15.8313 38.8523 16.1205 38.6307C17.1325 37.9659 18.0723 37.2273 19.012 36.858C19.9518 36.4886 20.8193 36.7841 21.1807 37.375C21.5421 37.9659 21.253 38.5568 20.9638 38.7784C20.6747 39 20.3855 39 20.3855 39.0739C20.3855 39.0739 20.6747 39.2955 21.1084 39.0739C21.3253 38.9261 21.6144 38.7045 21.759 38.4091C21.9036 38.0398 21.9036 37.5227 21.6867 37.1534C21.253 36.267 19.9518 35.8239 18.8675 36.1932C17.7831 36.5625 16.7711 37.3011 15.759 37.9659C15.5421 38.1136 15.253 38.3352 15.0361 38.4091C14.8193 38.5568 14.5301 38.6307 14.3132 38.6307C13.8795 38.7045 13.4458 38.4091 13.3012 38.0398C13.0843 37.6705 13.2289 37.2273 13.4458 37.0057C13.6626 36.7102 14.0964 36.6364 14.3132 36.7102C14.6024 36.7841 14.6747 37.0795 14.6747 37.3011C14.6024 37.5227 14.4578 37.5966 14.2409 37.5966C13.9518 37.7443 13.8795 37.4489 13.8072 37.5227Z" fill="#9C723E"/>
</g>
<g id="Group_5">
<path id="Vector_9" d="M11.9999 56.4318C10.1204 56.4318 8.24091 57.2443 6.21682 57.2443C5.20477 57.2443 4.19272 57.0227 3.39754 56.4318C2.53007 55.9148 2.02404 54.8807 2.02404 53.8466C2.02404 52.8864 2.3132 52 2.60236 51.1875C2.89151 50.375 3.25296 49.7102 3.46983 48.9716C3.97585 47.4943 3.32525 46.2386 2.67465 45.0568C2.02404 43.9489 1.44573 42.6932 1.6626 41.5114C1.73489 40.9205 2.02404 40.4034 2.45778 40.1818C2.67465 40.0341 2.89151 39.8864 3.10838 39.8864C3.32525 39.8864 3.54212 39.8864 3.75898 40.0341C4.12043 40.1818 4.40959 40.5511 4.3373 40.9205C4.3373 41.2898 4.19272 41.5114 3.97585 41.6591C3.61441 41.9545 3.39754 41.8068 3.39754 41.8068C3.39754 41.733 3.61441 41.8068 3.90356 41.5852C4.04814 41.4375 4.12043 41.2159 4.12043 40.9943C4.12043 40.7727 3.90356 40.4773 3.61441 40.4034C3.46983 40.3295 3.32525 40.3295 3.10838 40.3295C2.9638 40.3295 2.74694 40.4773 2.60236 40.5511C2.3132 40.7727 2.09633 41.2159 2.02404 41.6591C1.95176 42.1023 2.02404 42.6932 2.24091 43.2102C2.45778 43.7273 2.74694 44.2443 3.10838 44.8352C3.25296 45.0568 3.46983 45.3523 3.61441 45.6477C3.68669 45.7955 3.75898 46.017 3.83127 46.1648C3.90356 46.3125 3.97585 46.5341 4.04814 46.6818C4.3373 47.4205 4.26501 48.3068 4.04814 49.1193C3.68669 50.7443 2.67465 52.1477 2.74694 53.7727C2.74694 54.5852 3.18067 55.3239 3.83127 55.767C4.48188 56.2102 5.34935 56.5057 6.21682 56.4318C8.02404 56.4318 9.90356 55.6193 11.9999 55.6193C14.0963 55.6193 15.9759 56.4318 17.7831 56.4318C18.6506 56.5057 19.518 56.2102 20.1686 55.767C20.8192 55.3239 21.253 54.5852 21.253 53.7727C21.3252 52.1477 20.3132 50.6705 19.9518 49.1193C19.7349 48.3068 19.6626 47.4943 19.9518 46.6818C20.024 46.4602 20.0963 46.3125 20.1686 46.1648C20.2409 46.017 20.3132 45.7955 20.3855 45.6477C20.5301 45.3523 20.7469 45.0568 20.8915 44.7614C21.253 44.1705 21.5421 43.6534 21.759 43.1364C21.9759 42.6193 22.0481 42.0284 21.9759 41.5852C21.9036 41.142 21.6867 40.6989 21.3975 40.4773C21.253 40.4034 21.0361 40.2557 20.8915 40.2557C20.7469 40.2557 20.5301 40.2557 20.3855 40.3295C20.0963 40.4773 19.8795 40.6989 19.8795 40.9205C19.8795 41.142 19.9518 41.3636 20.0963 41.5114C20.3855 41.8068 20.6024 41.733 20.6024 41.733C20.6024 41.733 20.3855 41.8807 20.024 41.5852C19.8795 41.4375 19.6626 41.2159 19.6626 40.8466C19.6626 40.4773 19.8795 40.108 20.2409 39.9602C20.4578 39.8864 20.6746 39.8125 20.8915 39.8125C21.1084 39.8125 21.3252 39.9602 21.5421 40.0341C21.9759 40.3295 22.265 40.8466 22.3373 41.3636C22.5542 42.5455 21.9759 43.8011 21.3252 44.9091C20.6746 46.017 20.024 47.3466 20.5301 48.8239C20.7469 49.5625 21.0361 50.3011 21.3975 51.0398C21.6867 51.8523 21.9759 52.7386 21.9759 53.6989C21.9759 54.6591 21.3975 55.6932 20.6024 56.2841C19.8072 56.875 18.7951 57.1705 17.7831 57.0966C15.759 57.1705 13.9518 56.4318 11.9999 56.4318Z" fill="#9C723E"/>
</g>
<g id="Group_6">
<path id="Vector_10" d="M10.6988 16.6193C10.6988 16.6193 10.6988 16.6193 10.6265 16.6193C10.5542 16.6193 10.4819 16.5455 10.4819 16.3978C10.4819 16.3239 10.4097 16.25 10.4097 16.1762C10.4097 16.1023 10.4097 16.0284 10.4097 15.9546C10.4097 15.8807 10.4819 15.8068 10.4819 15.6591C10.5542 15.5853 10.6265 15.5114 10.6988 15.4375C10.9157 15.3637 11.2048 15.2898 11.4217 15.4375C11.6386 15.5853 11.7831 15.8807 11.7831 16.1762C11.7831 16.4716 11.5663 16.8409 11.3494 16.9887C11.0603 17.1364 10.7711 17.2102 10.4097 17.1364C9.75905 16.9887 9.32532 16.6193 8.96387 16.25C8.60243 15.9546 8.24098 15.733 7.95182 15.8807C7.66267 16.0284 7.66267 16.3239 7.73496 16.5455C7.80725 16.6932 7.95182 16.7671 7.87954 16.8409C7.87954 16.8409 7.73496 16.8409 7.59038 16.6193C7.4458 16.4716 7.37351 15.9546 7.73496 15.6591C7.95182 15.5114 8.24098 15.5114 8.45785 15.5853C8.67472 15.6591 8.89158 15.8068 9.10845 15.9546C9.4699 16.25 9.90363 16.6193 10.4097 16.6932C10.6265 16.6932 10.9157 16.6932 11.0603 16.5455C11.2771 16.3978 11.3494 16.25 11.3494 16.0284C11.3494 15.8068 11.2771 15.6591 11.1325 15.5114C10.988 15.4375 10.8434 15.4375 10.6988 15.4375C10.4097 15.5853 10.4097 15.8807 10.4097 16.0284C10.5542 16.4716 10.6988 16.5455 10.6988 16.6193Z" fill="#9C723E"/>
</g>
<g id="Group_7">
<path id="Vector_11" d="M13.3735 16.6193C13.3735 16.6193 13.3735 16.6193 13.4458 16.6193C13.5181 16.6193 13.5904 16.5455 13.5904 16.3978C13.5904 16.3239 13.6627 16.25 13.6627 16.1762C13.6627 16.1023 13.6627 16.0284 13.6627 15.9546C13.6627 15.8807 13.5904 15.8068 13.5904 15.6591C13.5181 15.5853 13.4458 15.5114 13.3735 15.4375C13.1567 15.3637 12.8675 15.2898 12.6506 15.4375C12.4338 15.5853 12.2892 15.8807 12.2892 16.1762C12.2892 16.4716 12.5061 16.8409 12.7229 16.9887C13.0121 17.1364 13.3012 17.2102 13.6627 17.1364C14.3133 16.9887 14.747 16.6193 15.1085 16.25C15.4699 15.9546 15.8314 15.733 16.1205 15.8807C16.4097 16.0284 16.4097 16.3239 16.3374 16.5455C16.2651 16.6932 16.1205 16.7671 16.1928 16.8409C16.1928 16.8409 16.3374 16.8409 16.482 16.6193C16.6265 16.4716 16.6988 15.9546 16.3374 15.6591C16.1205 15.5114 15.8314 15.5114 15.6145 15.5853C15.3976 15.6591 15.1808 15.8068 14.9639 15.9546C14.6024 16.25 14.1687 16.6193 13.6627 16.6932C13.4458 16.6932 13.1567 16.6932 13.0121 16.5455C12.7952 16.3978 12.7229 16.25 12.7229 16.0284C12.7229 15.8068 12.7952 15.6591 12.9398 15.5114C13.0844 15.4375 13.2289 15.4375 13.3735 15.4375C13.6627 15.5853 13.6627 15.8807 13.6627 16.0284C13.4458 16.4716 13.3735 16.5455 13.3735 16.6193Z" fill="#9C723E"/>
</g>
<g id="Group_8">
<path id="Vector_12" d="M16.988 14.4773C16.988 14.4773 16.9157 14.4034 16.8434 14.4034C16.6988 14.3296 16.5542 14.4034 16.4097 14.4034C16.1928 14.4773 16.0482 14.625 15.7591 14.6989C15.5422 14.8466 15.1084 14.8466 14.8193 14.625C14.5301 14.4773 14.3133 14.2557 14.0964 14.2557C13.8795 14.2557 13.5904 14.625 13.1566 14.6989C12.7229 14.6989 12.2892 14.4773 12.0723 14.4773C11.7831 14.4773 11.4217 14.6989 10.9157 14.6989C10.4819 14.625 10.1928 14.2557 9.97592 14.2557C9.75905 14.1818 9.54218 14.4773 9.25303 14.625C8.96387 14.8466 8.60242 14.8466 8.31327 14.6989C8.02411 14.625 7.87953 14.4773 7.66266 14.4034C7.51809 14.3296 7.37351 14.3296 7.22893 14.4034C7.15664 14.4034 7.15664 14.4034 7.08435 14.4773C7.08435 14.4034 7.08435 14.3296 7.08435 14.3296C7.08435 14.3296 7.08435 14.3296 7.15664 14.3296C7.30122 14.2557 7.51809 14.2557 7.73495 14.3296C7.95182 14.4034 8.16869 14.4773 8.38556 14.5512C8.60242 14.625 8.81929 14.625 9.03616 14.4773C9.18074 14.4034 9.25303 14.2557 9.3976 14.1818C9.54218 14.108 9.75905 13.9602 9.97592 14.0341C10.4097 14.108 10.6265 14.4773 10.9157 14.4773C11.2048 14.4773 11.494 14.3296 12 14.2557C12.506 14.3296 12.7952 14.5512 13.0844 14.4773C13.3735 14.4773 13.5904 14.1818 14.0241 14.0341C14.241 14.0341 14.4578 14.108 14.6024 14.1818C14.747 14.2557 14.8916 14.4034 14.9639 14.4773C15.1807 14.625 15.3976 14.625 15.6145 14.5512C15.8313 14.4773 16.0482 14.3296 16.2651 14.3296C16.4819 14.2557 16.6988 14.2557 16.8434 14.3296C16.8434 14.3296 16.8434 14.3296 16.9157 14.3296C16.9157 14.4034 16.988 14.4034 16.988 14.4773Z" fill="#9C723E"/>
</g>
<g id="Group_9">
<path id="Vector_13" d="M16.7711 13C16.7711 13 16.6988 13.0739 16.6265 13.0739C16.482 13.1477 16.3374 13.2216 16.1928 13.2955C15.9759 13.3693 15.7591 13.3693 15.5422 13.3693C15.0362 13.4432 14.5302 13 14.0241 13.1477C13.735 13.2216 13.4458 13.3693 13.0844 13.3693C12.8675 13.3693 12.7229 13.3693 12.5061 13.2955C12.3615 13.2216 12.2169 13.2216 12.0723 13.1477C11.9278 13.1477 11.7832 13.2216 11.6386 13.2955C11.4217 13.2955 11.2772 13.3693 11.0603 13.3693C10.6988 13.3693 10.4097 13.2216 10.1205 13.1477C9.6145 13 9.10847 13.4432 8.60245 13.3693C8.38558 13.3693 8.09643 13.3693 7.95185 13.2955C7.73498 13.2216 7.5904 13.1477 7.51811 13.0739C7.44582 13.0739 7.44582 13 7.37354 13C7.37354 12.9262 7.37354 12.9262 7.37354 12.9262C7.5904 13 8.02414 13.1477 8.53016 13.1477C8.67474 13.1477 8.74703 13.1477 8.89161 13.0739C9.03619 13 9.10848 13 9.25305 12.9262C9.46992 12.8523 9.83137 12.7046 10.1928 12.7784C10.5543 12.8523 10.8434 13 11.1326 13C11.2771 13 11.4217 13 11.5663 12.9262C11.7109 12.8523 11.9278 12.8523 12.1446 12.7784C12.3615 12.8523 12.5061 12.8523 12.7229 12.9262C12.8675 12.9262 13.0121 13 13.1567 13C13.4458 13 13.735 12.8523 14.0964 12.7784C14.4579 12.7046 14.747 12.7784 15.0362 12.9262C15.1808 12.9262 15.2531 13 15.3976 13.0739C15.5422 13.0739 15.6145 13.0739 15.7591 13.1477C16.3374 13.2216 16.6988 13.0739 16.9157 12.9262C16.7711 12.9262 16.7711 13 16.7711 13Z" fill="#9C723E"/>
</g>
<path id="Vector_14" d="M12 45.3523C9.75902 45.3523 7.59034 45.6478 5.42167 46.1648C5.13251 44.983 4.84336 43.7273 4.5542 42.5455C7.01203 41.9546 9.54215 41.6591 12 41.6591C14.4578 41.6591 16.9879 41.9546 19.4458 42.5455C19.1566 43.7273 18.8675 44.983 18.5783 46.1648C16.4819 45.5739 14.2409 45.3523 12 45.3523Z" fill="#9C723E"/>
<g id="Group_10">
<path id="Vector_15" d="M16.5543 47.7898C16.482 48.0114 14.4579 47.642 12.0001 47.4943C9.54223 47.642 7.51814 48.0114 7.44585 47.7898C7.37356 47.642 9.39765 46.9034 12.0001 46.7557C14.6748 46.9034 16.6266 47.642 16.5543 47.7898Z" fill="#9C723E"/>
</g>
<g id="Group_11">
<path id="Vector_16" d="M16.3374 49.9318C16.2651 50.1534 14.3856 49.9318 12.0001 49.858C9.61452 49.9318 7.735 50.1534 7.66271 49.9318C7.59042 49.7841 9.54223 49.1932 12.0001 49.1193C14.4579 49.1932 16.4097 49.7841 16.3374 49.9318Z" fill="#9C723E"/>
</g>
<g id="Group_12">
<path id="Vector_17" d="M17.3494 52.3693C17.2771 52.4432 16.6988 52.3693 15.7591 52.1478C14.8193 52 13.5181 51.7784 12 51.7784C10.5542 51.8523 9.25304 52 8.241 52.1478C7.30124 52.3693 6.72292 52.4432 6.65063 52.3693C6.65063 52.2955 7.15666 52 8.09642 51.6307C9.03618 51.3353 10.4097 51.0398 11.9277 50.9659C13.4458 51.0398 14.8193 51.2614 15.7591 51.6307C16.8434 51.9262 17.3494 52.2216 17.3494 52.3693Z" fill="#9C723E"/>
</g>
<g id="Group_13">
<path id="Vector_18" d="M17.5662 54.4375C17.5662 54.5114 16.9156 54.4375 15.9036 54.216C14.8915 54.0682 13.518 53.8466 12 53.6989C10.4819 53.7728 9.10839 53.9944 8.09634 54.216C7.15658 54.4375 6.50598 54.5114 6.50598 54.4375C6.50598 54.3637 7.0843 54.0682 8.02405 53.6989C9.0361 53.4034 10.4096 53.108 12 52.9603C13.6626 53.108 15.0361 53.4034 15.9759 53.6989C16.9879 54.0682 17.5662 54.3637 17.5662 54.4375Z" fill="#9C723E"/>
</g>
</g>
<g id="Group_14" opacity="0.2">
<path id="Vector_19" opacity="0.6" d="M16.7711 3.39773V0.517045C16.7711 0.221591 16.5542 0 16.2651 0H12V3.91477H16.2651C16.5542 3.91477 16.7711 3.69318 16.7711 3.39773Z" fill="#1D1D1B"/>
<path id="Vector_20" opacity="0.6" d="M17.0602 14.625C17.0602 14.625 16.9879 14.5511 16.9156 14.4772C16.9879 14.5511 17.0602 14.5511 17.0602 14.625Z" fill="#1D1D1B"/>
<path id="Vector_21" opacity="0.6" d="M23.7108 59.2386L24 61.0852C24 63.375 22.6265 65 20.9639 65H12V3.91473H16.4096L16.7711 8.27269C16.7711 8.56814 16.6988 8.8636 16.4096 9.01132C16.1928 9.15905 16.0482 9.45451 16.1205 9.74996C16.1928 10.0454 16.2651 10.4147 16.3373 10.7102C16.4096 11.1534 16.4819 11.5966 16.5542 12.0397C16.6265 12.2613 16.6265 12.5568 16.6988 12.8522H16.7711C16.7711 12.8522 16.7711 12.8522 16.6988 12.8522V12.9261C16.6988 13.1477 16.7711 13.3693 16.7711 13.5909C16.7711 13.8125 16.8434 14.0341 16.8434 14.2556C16.8434 14.3295 16.8434 14.4034 16.8434 14.4034C16.9157 14.9204 16.988 15.4375 16.988 15.9545C16.988 16.1761 17.0602 16.4716 17.0602 16.6931C17.0602 16.9886 17.0602 17.2102 17.1325 17.5056C17.1325 17.875 17.2048 18.2443 17.2048 18.6136C17.2048 19.2784 17.2048 19.9431 17.2048 20.6079C17.2048 21.7897 17.0602 22.8977 16.988 23.9318C16.9157 24.6704 17.2048 25.4091 17.7108 25.8522L21.4699 28.8806C23.0602 30.2102 24 32.1306 24 34.1988L23.7108 34.7159V59.2386Z" fill="#1D1D1B"/>
</g>
<path id="Vector_22" opacity="0.4" d="M3.90356 62.7841C3.90356 62.8579 3.75898 62.8579 3.46982 62.9318C3.18067 62.9318 2.67464 62.7841 2.3132 62.3409C1.51802 61.3807 1.5903 59.6818 1.51802 57.9829C1.22886 54.2898 1.37344 49.267 1.37344 43.8011C1.37344 42.3977 1.30115 41.0682 1.30115 39.8125C1.30115 38.5568 1.15657 37.2273 1.22886 36.0454C1.22886 34.7898 1.37344 33.6079 1.73488 32.5C1.80717 32.2045 1.95175 31.9829 2.02404 31.6875C2.16862 31.4659 2.3132 31.1704 2.45777 30.9488C2.74693 30.5057 3.10838 30.0625 3.46982 29.767C4.19271 29.1023 4.84332 28.6591 5.34934 28.2159C5.6385 27.9943 5.85536 27.7727 6.07223 27.625C6.2891 27.3295 6.50597 27.1818 6.72284 26.9602C7.44573 26.2954 7.80717 25.8523 7.87946 25.9261C7.95175 26 7.80717 26.517 7.22886 27.4034C7.08428 27.625 6.9397 27.8466 6.72284 28.0682C6.50597 28.2898 6.2891 28.5852 5.99994 28.8068C5.49392 29.3238 4.84332 29.8409 4.33729 30.5057C3.75898 31.1704 3.32524 31.8352 3.10838 32.7954C2.89151 33.7557 2.81922 34.7898 2.81922 35.9716C2.81922 37.1534 2.9638 38.3352 2.9638 39.6648C2.9638 40.9943 3.03609 42.3238 3.03609 43.7273C3.03609 49.267 2.74693 54.2898 2.67464 57.8352C2.67464 58.8693 2.53006 59.6079 2.53006 60.2727C2.53006 60.9375 2.60235 61.5284 2.81922 61.8977C2.9638 62.267 3.25296 62.4148 3.46982 62.5625C3.75898 62.6363 3.90356 62.7102 3.90356 62.7841Z" fill="white"/>
<path id="Vector_23" opacity="0.3" d="M9.03619 8.12501C9.18076 8.05115 9.68679 9.01137 9.6145 10.5625C9.6145 11.375 9.46992 12.2614 9.25305 13.2216C9.10848 14.1818 8.9639 15.2159 8.81932 16.3239C8.81932 16.8409 8.74703 17.4318 8.74703 17.9489C8.74703 18.4659 8.67474 18.983 8.67474 19.4261C8.67474 20.3864 8.60245 21.2727 8.67474 22.0114C8.74703 23.4886 8.74703 24.375 8.53016 24.4489C8.38558 24.4489 8.09643 23.5625 7.73498 22.0852C7.5904 21.3466 7.51811 20.4602 7.44582 19.4261C7.37354 18.9091 7.44582 18.3921 7.44582 17.875C7.44582 17.358 7.51811 16.7671 7.51811 16.1761C7.66269 15.0682 7.87956 13.9602 8.09643 13C8.31329 12.0398 8.53016 11.2273 8.67474 10.4886C8.9639 9.08524 8.81932 8.19887 9.03619 8.12501Z" fill="white"/>
</g>
</g>
<defs>
<clipPath id="clip0_1_1534">
<rect width="24" height="65" fill="white"/>
</clipPath>
</defs>
</svg>
