<svg width="30" height="65" viewBox="0 0 30 65" fill="none" xmlns="http://www.w3.org/2000/svg">
<g id="Frame" clip-path="url(#clip0_1_1576)">
<g id="Group">
<g id="Group_2">
<path id="Vector" d="M4.27568 65C3.22428 65 2.38315 64.232 2.31306 63.2545L0.070071 40.7733C-0.35049 36.9334 1.12147 33.0934 4.0654 30.5102L7.42988 27.508C9.04203 26.0418 9.95325 23.9473 9.95325 21.783V10.7518C9.95325 10.4027 10.2336 10.1933 10.514 10.1933H19.486C19.8364 10.1933 20.0467 10.4726 20.0467 10.7518V21.8528C20.0467 24.0171 20.9579 26.1117 22.5701 27.5778L25.9346 30.58C28.8084 33.1632 30.2803 37.0032 29.9299 40.8431L27.6869 63.3243C27.6168 64.3018 26.7757 65.0698 25.7243 65.0698H4.27568V65Z" fill="#752118"/>
<path id="Vector_2" d="M10.3738 23.8776C9.95327 25.4834 9.11215 26.9495 7.85047 28.0666L4.48598 31.0688C1.82243 33.5124 0.420561 37.1429 0.771028 40.7036L3.01402 63.1848C3.08411 63.8131 3.64486 64.3018 4.2757 64.3018C7.85047 63.1149 11.4252 62.4168 15 62.347C18.5748 62.4168 22.1495 63.1149 25.7243 64.3018C26.3551 64.3018 26.9159 63.8131 26.986 63.1848L29.229 40.7036C29.5794 37.0731 28.1776 33.5124 25.514 31.0688L22.1495 28.0666C20.8878 26.9495 20.0467 25.4834 19.6262 23.8776H10.3738Z" fill="#4F1610"/>
<path id="Vector_3" d="M19.3458 3.77014H10.6542V10.1933H19.3458V3.77014Z" fill="#3B100C"/>
<path id="Vector_4" d="M10.6542 9.42536C10.2336 9.42536 9.88318 9.07627 9.88318 8.65737V5.79485C9.88318 5.44577 10.1636 5.09668 10.5841 5.09668H19.3458C19.6963 5.09668 20.0467 5.37595 20.0467 5.79485V8.65737C20.0467 9.07627 19.6963 9.42536 19.2757 9.42536H10.6542Z" fill="#4F1610"/>
<path id="Vector_5" d="M10.6542 4.46831C10.2336 4.46831 9.95325 4.11923 9.95325 3.77014V1.67562C9.95325 1.46617 10.0934 1.25671 10.3037 1.1869C11.7757 0.349087 13.3878 0 15 0C16.6121 0 18.1542 0.349087 19.7663 1.11708C19.9766 1.1869 20.1168 1.39635 20.1168 1.6058V3.70032C20.1168 4.11923 19.7663 4.3985 19.4159 4.3985H10.6542V4.46831Z" fill="#3B100C"/>
<path id="Vector_6" d="M9.88318 20.5961V10.7518C9.88318 10.4028 10.1636 10.1933 10.4439 10.1933H19.4159C19.7664 10.1933 19.9766 10.4726 19.9766 10.7518V20.5961H9.88318Z" fill="#3B100C"/>
<path id="Vector_7" d="M20.0467 18.2922H9.88318V19.4791H20.0467V18.2922Z" fill="#AF995B"/>
<path id="Vector_8" d="M20.0467 11.4501H9.88318V12.637H20.0467V11.4501Z" fill="#AF995B"/>
<path id="Vector_9" d="M15 61.0204C7.28969 56.1332 4.20558 48.1042 4.69623 37.7014C8.13081 36.5843 11.5654 35.956 14.9299 35.8862C18.3645 35.956 21.799 36.5843 25.1635 37.7014C25.7944 48.1042 22.7102 56.1332 15 61.0204Z" fill="#3B100C"/>
<path id="Vector_10" d="M15 59.3448C8.76167 55.0161 5.81774 48.2438 6.09811 38.7486C9.25232 37.841 12.1262 37.3523 15 37.3523C17.8738 37.4221 20.7476 37.841 23.9019 38.7486C24.1822 48.2438 21.2383 55.0161 15 59.3448Z" fill="#AF995B"/>
<path id="Vector_11" d="M15 58.088C9.60281 53.9688 7.00935 47.8249 7.07945 39.3071C9.88319 38.5391 12.4766 38.1901 15 38.1202C17.5234 38.1901 20.1869 38.5391 22.9206 39.3071C22.9206 47.8249 20.3271 53.9688 15 58.088Z" fill="#3B100C"/>
<path id="Vector_12" d="M15 52.5725C11.4252 52.5725 7.85046 52.9914 4.34579 53.7594C4.76635 52.7121 5.3271 51.6649 5.81775 50.6176C4.97663 49.8496 4.06541 49.0816 3.08411 48.3136C7.00934 47.4758 10.9346 46.9871 14.9299 46.9871C18.9252 46.9871 22.8505 47.406 26.7757 48.3136C25.8645 49.0816 24.9533 49.8496 24.0421 50.6176C24.6028 51.6649 25.0935 52.7121 25.514 53.7594C22.0794 52.9216 18.5748 52.5725 15 52.5725Z" fill="#BE1622"/>
<path id="Vector_13" d="M15 51.8743C11.8458 51.8743 8.69162 52.1536 5.6075 52.782C5.88788 52.1536 6.23835 51.5253 6.51872 50.8969L6.729 50.4082L6.30844 50.0591C5.81778 49.5704 5.25704 49.0816 4.69629 48.6627C8.06078 48.0344 11.4954 47.6853 15 47.6853C18.4346 47.6853 21.8692 48.0344 25.3038 48.6627C24.743 49.1515 24.1823 49.5704 23.6916 50.0591L23.2711 50.4082L23.4813 50.8969C23.8318 51.5253 24.1122 52.1536 24.3925 52.782C21.3084 52.1536 18.1542 51.8743 15 51.8743Z" fill="#DEC273"/>
<path id="Vector_14" d="M13.5981 16.9656C12.757 16.9656 11.986 16.2675 11.986 15.3598C11.986 14.522 12.6869 13.754 13.5981 13.754H16.3318C17.1729 13.754 17.9439 14.4522 17.9439 15.3598C17.9439 16.1976 17.243 16.9656 16.3318 16.9656H13.5981Z" fill="#BE1622"/>
<path id="Vector_15" d="M11.8458 42.7282C11.8458 42.7282 11.7757 42.798 11.5654 42.798C11.3552 42.798 11.0047 42.7282 10.8645 42.3093C10.7243 41.8904 10.9346 41.2621 11.5654 41.1224C12.1262 40.913 12.8972 41.4017 13.1075 42.0999C13.1776 42.4489 13.1776 42.8679 13.0374 43.2169C12.8271 43.566 12.4066 43.8453 12.0561 43.9151C11.6355 43.9849 11.2851 44.1944 10.7243 44.0547C10.4439 43.9849 10.2337 43.8453 10.0935 43.566C9.95329 43.3566 9.95329 43.0773 9.88319 42.8679C9.8131 42.4489 9.74301 41.9602 9.67291 41.5413C9.67291 41.3319 9.60282 41.0526 9.60282 40.7733C9.60282 40.4941 9.74301 40.145 10.0234 40.0053C10.5841 39.7261 11.0748 39.7959 11.5654 39.7261C12.0561 39.6563 12.6168 39.5864 13.1776 39.7959C13.3178 39.8657 13.458 39.9355 13.5281 40.0752L13.6682 40.2148L13.7383 40.4242C13.8785 40.7035 13.9486 40.9828 13.9486 41.1922C14.0187 41.681 14.0888 42.1697 14.0888 42.6584C14.0888 43.1471 14.0888 43.6358 14.0888 44.1246C14.0888 44.334 14.0888 44.6133 13.9486 44.8926C13.8084 45.1718 13.5981 45.3813 13.3879 45.4511C12.8972 45.5907 12.4767 45.5907 12.0561 45.5907C11.6355 45.5907 11.215 45.6605 10.7944 45.6605C10.3738 45.6605 9.95329 45.6605 9.60282 45.4511C9.18226 45.3115 8.97198 44.8926 8.90188 44.5435C8.6916 43.1471 8.62151 42.0999 8.55142 41.3319C8.48132 40.5639 8.48132 40.145 8.48132 40.145C8.48132 40.145 8.55142 40.5639 8.6916 41.262C8.83179 41.9602 8.97198 43.0773 9.18226 44.4038C9.25235 44.6831 9.46263 44.9624 9.743 45.102C10.0234 45.2416 10.4439 45.2416 10.7944 45.2416C11.215 45.2416 11.5654 45.1718 11.986 45.1718C12.4066 45.102 12.8972 45.1718 13.2477 45.0322C13.5981 44.8926 13.7383 44.5435 13.7383 44.0547C13.7383 43.566 13.7383 43.1471 13.7383 42.6584C13.6682 42.1697 13.5981 41.681 13.5981 41.1922C13.5281 40.7035 13.3879 40.2846 12.9673 40.0752C12.5467 39.9355 12.0561 40.0053 11.5654 40.0752C11.0748 40.145 10.514 40.145 10.2337 40.2846C9.95329 40.4941 9.95329 40.9828 10.0935 41.4017C10.1636 41.8904 10.2337 42.3093 10.3038 42.7282C10.3738 43.1471 10.514 43.4962 10.8645 43.6358C11.215 43.7057 11.6355 43.566 11.986 43.4962C12.3365 43.4264 12.6168 43.2169 12.8271 42.9377C12.9673 42.6584 12.9673 42.3093 12.8972 42.03C12.757 41.4017 12.1963 41.0526 11.7056 41.1922C11.215 41.262 11.0047 41.8206 11.1449 42.0999C11.215 42.4489 11.5654 42.5188 11.7056 42.5886C11.7757 42.7282 11.8458 42.7282 11.8458 42.7282Z" fill="#73312A"/>
<path id="Vector_16" d="M18.0842 42.7283C18.0842 42.7283 18.1542 42.7981 18.3645 42.7981C18.5748 42.7981 18.9253 42.7283 19.0655 42.3094C19.2056 41.8905 18.9954 41.2621 18.3645 41.1225C17.8038 40.913 17.0327 41.4018 16.8225 42.0999C16.8225 42.449 16.8225 42.8679 17.0327 43.2868C17.243 43.6359 17.6636 43.9152 18.0141 43.985C18.4346 44.0548 18.7851 44.2643 19.3458 44.1246C19.6262 44.0548 19.8365 43.9152 19.9767 43.6359C20.1169 43.4265 20.1169 43.1472 20.187 42.9377C20.257 42.5188 20.3271 42.0301 20.3972 41.6112C20.3972 41.4018 20.4673 41.1225 20.4673 40.8432C20.4673 40.5639 20.3271 40.2149 20.0468 40.0752C19.486 39.796 18.9954 39.8658 18.5047 39.796C18.0141 39.7261 17.4533 39.6563 16.8926 39.8658C16.7524 39.9356 16.6122 40.0054 16.5421 40.145L16.4019 40.2847L16.2617 40.4941C16.1215 40.7734 16.0514 41.0527 16.0514 41.2621C15.9813 41.7508 15.9113 42.2396 15.9113 42.7283C15.9113 43.217 15.9113 43.7057 15.9113 44.1945C15.9113 44.4039 15.9113 44.6832 16.0514 44.9624C16.1916 45.2417 16.4019 45.4512 16.6122 45.521C17.1028 45.6606 17.5234 45.6606 17.944 45.6606C18.3645 45.6606 18.7851 45.7304 19.2056 45.7304C19.6262 45.7304 20.0468 45.7304 20.3972 45.521C20.8178 45.3813 21.0281 44.9624 21.0982 44.6134C21.3085 43.217 21.3785 42.1697 21.4486 41.4018C21.5187 40.6338 21.5187 40.2149 21.5187 40.2149C21.5187 40.2149 21.4486 40.6338 21.3084 41.3319C21.1683 42.0301 21.0281 43.1472 20.8178 44.4737C20.7477 44.753 20.5374 45.0323 20.257 45.1719C19.9767 45.3115 19.5561 45.3115 19.2056 45.3115C18.7851 45.3115 18.4346 45.2417 18.0141 45.2417C17.5935 45.1719 17.1028 45.2417 16.7524 45.1021C16.4019 44.9624 16.2617 44.6134 16.2617 44.1246C16.2617 43.6359 16.2617 43.217 16.2617 42.7283C16.3318 42.2396 16.4019 41.7508 16.4019 41.2621C16.472 40.7734 16.6122 40.3545 17.0327 40.145C17.4533 40.0054 17.944 40.0752 18.4346 40.145C18.9253 40.2149 19.486 40.2149 19.7664 40.3545C20.0468 40.5639 20.0468 41.0527 19.9066 41.4716C19.8365 41.9603 19.7664 42.3792 19.6963 42.7981C19.6262 43.217 19.486 43.5661 19.1356 43.7057C18.7851 43.7755 18.3645 43.6359 18.0141 43.5661C17.6636 43.4963 17.3832 43.2868 17.1729 43.0076C17.0327 42.7283 17.0327 42.3792 17.1028 42.0999C17.243 41.4716 17.8038 41.1225 18.2944 41.2621C18.7851 41.3319 18.9954 41.8905 18.8552 42.1697C18.7851 42.5188 18.4346 42.5887 18.2944 42.6585C18.2243 42.7283 18.1542 42.7283 18.0842 42.7283Z" fill="#73312A"/>
<path id="Vector_17" d="M15 53.6198C13.7383 53.55 12.6869 53.7594 12.6168 53.6198C12.6168 53.55 13.6682 53.1311 15 53.2009C16.3318 53.1311 17.3832 53.55 17.3832 53.6198C17.3131 53.7594 16.2617 53.55 15 53.6198Z" fill="#73312A"/>
<path id="Vector_18" d="M15 55.0161C14.3692 55.0161 13.9486 54.8765 13.9486 54.8067C13.9486 54.7369 14.3692 54.5972 15 54.5972C15.6309 54.5972 16.0514 54.667 16.0514 54.8067C16.0514 54.9463 15.5608 55.0161 15 55.0161Z" fill="#73312A"/>
<path id="Vector_19" d="M15 56.2728C14.5794 56.2728 14.2991 56.1332 14.2991 56.0634C14.2991 55.9238 14.6495 55.8539 15 55.9238C15.3505 55.9238 15.7009 55.9936 15.7009 56.0634C15.7009 56.1332 15.4206 56.2728 15 56.2728Z" fill="#73312A"/>
<path id="Vector_20" d="M13.9486 16.4768C13.2477 16.4768 12.757 15.9881 12.757 15.4296C12.757 14.8012 13.3178 14.3823 13.9486 14.3823H16.0514C16.7523 14.3823 17.243 14.871 17.243 15.4296C17.243 16.0579 16.6822 16.4768 16.0514 16.4768H13.9486Z" fill="#4F1610"/>
<path id="Vector_21" opacity="0.3" d="M12.2664 12.2878C12.4766 12.2878 12.6869 15.29 12.8271 20.1772C12.8271 20.8056 12.8972 21.4339 12.8972 22.1321C12.8972 22.8303 12.8271 23.5983 12.6168 24.3663C12.2664 25.8324 11.5654 27.3684 10.4439 28.7647C10.1635 29.1138 9.81308 29.3931 9.53271 29.7422C9.25233 30.0215 8.90187 30.3007 8.62149 30.58C7.99065 31.1385 7.35981 31.7669 6.72897 32.3254L6.23831 32.7443L5.81775 33.1632C5.53738 33.4425 5.25701 33.7916 5.04673 34.1407C4.76635 34.4898 4.62617 34.8389 4.34579 35.188C4.13551 35.537 3.99532 35.9559 3.78504 36.3748C3.50467 37.2127 3.29439 37.9806 3.2243 38.8185C3.2243 39.0279 3.1542 39.2374 3.1542 39.4468V40.0752C3.1542 40.4941 3.2243 40.913 3.2243 41.3319C3.36448 43.0773 3.50467 44.7529 3.71495 46.3587C3.99532 49.5703 4.20561 52.5027 4.41589 54.9463C4.76635 59.8335 4.83645 62.8356 4.62617 62.9055C4.41588 62.9055 3.92523 59.9033 3.2243 55.0859C2.87383 52.6423 2.52336 49.7798 2.17289 46.5682C2.1028 44.9624 1.89252 43.2868 1.68224 41.5413C1.61215 41.1224 1.61215 40.7035 1.54205 40.145V39.4468C1.54205 39.2374 1.54205 38.9581 1.61215 38.7486C1.68224 37.7712 1.89252 36.7937 2.24299 35.8163C2.45327 35.3276 2.66355 34.9087 2.87383 34.42C3.1542 34.0011 3.36448 33.5821 3.64486 33.1632C3.92523 32.7443 4.2056 32.3953 4.62617 32.0462L5.11682 31.5574L5.60747 31.0687C6.23832 30.5102 6.93925 29.8818 7.57009 29.3233C7.92056 29.044 8.20093 28.7647 8.48131 28.4855C8.76168 28.2062 9.04205 27.9968 9.25233 27.6477C10.2336 26.5306 10.9346 25.2041 11.285 23.9473C11.4953 23.319 11.5654 22.6906 11.5654 22.0623C11.6355 21.4339 11.6355 20.7357 11.6355 20.1772C11.8458 15.29 12.0561 12.2878 12.2664 12.2878Z" fill="white"/>
</g>
<path id="Vector_22" opacity="0.25" d="M25.9346 30.58L22.5701 27.5779C20.9579 26.1117 20.0467 24.0172 20.0467 21.8528V20.5961V19.4092V18.2223V12.5671V11.3802V10.6821C20.0467 10.333 19.7664 10.1235 19.486 10.1235H19.3458V9.35553C19.7664 9.35553 20.0467 9.00644 20.0467 8.58754V5.79484C20.0467 5.44576 19.7664 5.09667 19.3458 5.09667H19.2757V4.3985C19.6963 4.3985 19.9766 4.04941 19.9766 3.70032V1.6058C19.9766 1.39635 19.8364 1.1869 19.6262 1.11708C18.1542 0.349087 16.5421 0 15 0V65H25.7243C26.7757 65 27.6168 64.232 27.6869 63.2546L29.9299 40.7734C30.2804 36.9334 28.8084 33.1633 25.9346 30.58Z" fill="#1D1D1B"/>
</g>
</g>
<defs>
<clipPath id="clip0_1_1576">
<rect width="30" height="65" fill="white"/>
</clipPath>
</defs>
</svg>
