<svg width="19" height="65" viewBox="0 0 19 65" fill="none" xmlns="http://www.w3.org/2000/svg">
<g id="Frame" clip-path="url(#clip0_1_1516)">
<g id="Group">
<path id="Vector" d="M2.49064 65C1.06742 65 0 63.8829 0 62.5564V35.0483C0 32.1858 1.06742 29.4629 3.05993 27.4382C4.12734 26.3211 4.76779 24.855 4.83895 23.3888L4.91011 21.783L5.33708 14.3824L5.76405 6.56281V6.14391L5.19476 5.65518L5.76405 1.60577H13.236L13.8052 5.58537L13.1648 6.07409V6.49299L13.5918 14.2427L14.0187 21.6434L14.0899 23.2492C14.161 24.7852 14.8015 26.1815 15.8689 27.2986C17.8614 29.3931 18.9288 32.116 18.9288 34.9087V62.4167C18.9288 63.8131 17.7903 64.8603 16.4382 64.8603H2.49064V65Z" fill="#45B500"/>
<path id="Vector_2" opacity="0.5" d="M3.98508 27.4382C3.84276 27.5779 3.7716 27.7175 3.62928 27.8571C1.77909 29.812 0.782837 32.3255 0.782837 35.0483V62.5564C0.782837 63.5338 1.56561 64.3018 2.56186 64.3018C4.91018 63.1847 7.18733 62.5564 9.53565 62.5564C11.884 62.5564 14.2323 63.1847 16.5094 64.3018C17.5057 64.3018 18.2885 63.5338 18.2885 62.5564V35.0483C18.2885 32.3953 17.2922 29.812 15.442 27.8571C15.2997 27.7175 15.1574 27.5779 15.0862 27.4382H3.98508Z" fill="#A5DB14"/>
<path id="Vector_3" d="M6.19097 1.67562C5.76401 1.67562 5.4082 1.32653 5.4082 0.837809C5.4082 0.349087 5.76401 0 6.19097 0H12.809C13.2359 0 13.5917 0.349087 13.5917 0.837809C13.5917 1.32653 13.2359 1.67562 12.809 1.67562H6.19097Z" fill="#EDEDED"/>
<path id="Vector_4" d="M5.76399 6.56278V6.14387L5.1947 5.65515C5.26586 5.65515 5.33702 5.65515 5.33702 5.65515H13.6629C13.734 5.65515 13.8052 5.65515 13.8052 5.65515L13.1647 6.14387V6.56278H5.76399Z" fill="#008D36"/>
<path id="Vector_5" d="M9.39325 56.971C4.98126 56.971 1.35205 53.4103 1.35205 49.0118V42.6584C1.35205 38.2599 4.98126 34.769 9.39325 34.769H9.53557C14.0187 34.769 17.5768 38.3297 17.5768 42.6584V49.0118C17.5768 53.4103 13.9476 56.9012 9.53557 56.9012H9.39325V56.971Z" fill="#F6F6F6"/>
<path id="Vector_6" d="M9.39331 56.2728C5.33713 56.2728 2.06372 53.0612 2.06372 49.0118V42.6584C2.06372 38.6788 5.33713 35.4672 9.39331 35.4672H9.53563C13.5918 35.4672 16.8652 38.6788 16.8652 42.6584V49.0118C16.8652 52.9914 13.5918 56.203 9.53563 56.203H9.39331V56.2728Z" fill="#E94E1B"/>
<path id="Vector_7" d="M9.3933 53.4801C6.90267 53.4801 4.91016 51.5253 4.91016 49.0817V42.7283C4.91016 40.2847 6.90267 38.3298 9.3933 38.3298H9.53562C12.0263 38.3298 14.0188 40.2847 14.0188 42.7283V49.0817C14.0188 51.5253 12.0263 53.4801 9.53562 53.4801H9.3933Z" fill="#F6F6F6"/>
<path id="Vector_8" d="M9.39324 52.782C7.32957 52.782 5.6217 51.1064 5.6217 49.0817V42.7283C5.6217 40.7036 7.32957 39.028 9.39324 39.028H9.53556C11.5992 39.028 13.3071 40.7036 13.3071 42.7283V49.0817C13.3071 51.1064 11.5992 52.782 9.53556 52.782H9.39324Z" fill="#F9B233"/>
<path id="Vector_9" d="M17.6479 43.7755H1.35205V47.9646H17.6479V43.7755Z" fill="#F6F6F6"/>
<path id="Vector_10" d="M17.0075 44.4038H2.06372V47.1965H17.0075V44.4038Z" fill="#BE1622"/>
<path id="Vector_11" d="M9.46446 22.2019C7.89892 22.2019 6.40454 22.0623 4.91016 21.783L5.33712 14.3824C6.68918 14.7315 8.1124 14.9409 9.53562 14.9409C10.9588 14.9409 12.3109 14.7315 13.7341 14.3824L14.1611 21.783C12.5955 22.0623 11.03 22.2019 9.46446 22.2019Z" fill="#F9B233"/>
<path id="Vector_12" d="M9.46442 23.4587C7.47191 23.4587 5.83521 21.2245 5.83521 18.5017C5.83521 15.7788 7.47191 13.5446 9.46442 13.5446C11.4569 13.5446 13.0936 15.7788 13.0936 18.5017C13.0936 21.2943 11.4569 23.4587 9.46442 23.4587Z" fill="#F6F6F6"/>
<path id="Vector_13" d="M9.46437 22.2717C7.96999 22.2717 6.76025 20.5961 6.76025 18.5714C6.76025 16.4769 7.96999 14.8711 9.46437 14.8711C10.9588 14.8711 12.1685 16.5467 12.1685 18.5714C12.2397 20.5961 11.0299 22.2717 9.46437 22.2717Z" fill="#E94E1B"/>
<g id="Group_2" opacity="0.5">
<path id="Vector_14" opacity="0.5" d="M7.82767 7.61011C8.04115 7.61011 8.11231 10.7519 7.96999 15.7787C7.89883 17.0355 7.89883 18.4318 7.82767 19.898C7.82767 20.666 7.75651 21.3641 7.75651 22.2019C7.75651 22.6208 7.75651 22.9699 7.68535 23.3888C7.68535 23.8077 7.61419 24.2965 7.54302 24.7154C7.4007 25.623 7.11606 26.5306 6.68909 27.3684C6.47561 27.7873 6.19096 28.2062 5.90632 28.6251C5.764 28.8346 5.62168 29.044 5.47935 29.1837L5.05239 29.6724C3.91381 30.9291 3.27336 32.5349 3.05988 34.2804C2.98872 35.1182 2.98872 36.0956 2.98872 37.0032C2.98872 37.9109 2.98872 38.8185 2.98872 39.7261C2.98872 41.5414 2.98872 43.2868 2.91756 44.8926C2.84639 48.174 2.84639 51.1762 2.70407 53.6896C2.56175 58.7164 2.34827 61.7884 2.13478 61.7884C1.9213 61.7884 1.70782 58.7164 1.5655 53.6896C1.49433 51.1762 1.42317 48.2438 1.35201 44.8926C1.35201 43.217 1.35201 41.4715 1.28085 39.7261C1.28085 38.8185 1.28085 37.9109 1.28085 37.0032C1.28085 36.0258 1.20969 35.188 1.35201 34.0709C1.5655 31.9764 2.41943 30.0215 3.77149 28.5553L4.19845 28.0666C4.34078 27.927 4.4831 27.7873 4.55426 27.5779C4.8389 27.2288 5.05239 26.8797 5.26587 26.5306C5.62168 25.8324 5.90632 25.0645 6.04864 24.3663C6.1198 24.0172 6.19096 23.6681 6.19096 23.2492C6.19096 22.8303 6.26213 22.4812 6.26213 22.0623C6.33329 21.2943 6.40445 20.5263 6.40445 19.7583C6.54677 18.2922 6.61793 16.8958 6.76025 15.6391C7.25838 10.6821 7.61418 7.61011 7.82767 7.61011Z" fill="#F6F6F6"/>
</g>
<path id="Vector_15" opacity="0.15" d="M15.94 27.3684C14.8726 26.2513 14.2322 24.7852 14.161 23.319L14.0898 21.7132L13.6629 14.3126L13.2359 6.56284V6.14393L13.8763 5.65521L13.3071 1.6058C13.5205 1.46617 13.6629 1.1869 13.6629 0.907626C13.5917 0.349087 13.2359 0 12.8089 0H9.53552V65H16.5093C17.8614 65 18.9999 63.8829 18.9999 62.5564V35.0483C18.9999 32.1858 17.8614 29.4629 15.94 27.3684Z" fill="#1D1D1B"/>
</g>
</g>
<defs>
<clipPath id="clip0_1_1516">
<rect width="19" height="65" fill="white"/>
</clipPath>
</defs>
</svg>
